# xmcd CD database file
#
# Track frame offsets:
#	150
#	8804
#	18556
#	31037
#	41101
#	51191
#	60250
#	74111
#	83986
#	95805
#	106940
#	122400
#	134785
#	143079
#	154967
#	164485
#	177939
#	188585
#	200316
#	211481
#	220510
#	233985
#	243376
#	254495
#
# Disc length: 3518 seconds
#
# Revision: 0
# Processed by: cddbd v1.5.2PL0 Copyright (c) Steve Scherf et al.
# Submitted via: CDex 1.51
#
DISCID=5b0dbc18
DTITLE=Moon Mullican - Plays And Sings "I'll Sail Ny Ship Alone" - Sings And Plays "Mister Honkey Tonk Man"
DYEAR=1966
DGENRE=Country
TTITLE0=I'll Sail My Ship Alone
TTITLE1=Sweet Georgia Brown
TTITLE2=Moon's Blues
TTITLE3=Corinna Corinna
TTITLE4=You Don't Have To Be A Baby To Cry
TTITLE5=Mr. Teardrop
TTITLE6=Love Don't Have A Guarantee
TTITLE7=Columbus Stockade Blues
TTITLE8=Lucky Me
TTITLE9=You Can't Take It With You
TTITLE10=Gamblin' Blackie
TTITLE11=Old Pipeliner (Pipeliner Blues)
TTITLE12=Mr. Honky Tonk Man
TTITLE13=I Don't Live Anymore
TTITLE14=Man In The Moon
TTITLE15=I'm Just One Tear Away (How Do You Know There Is A Man In The Moon)
TTITLE16=Live And Let Live
TTITLE17=I Ain't No Beatle (But I Want To Hold Your Hand)
TTITLE18=I Really Know What Lonesome Can Be
TTITLE19=Worried Mind
TTITLE20=Nobody's Darlin' But Mine
TTITLE21=In The Blue Of The Night
TTITLE22=Old Pals Are The Best Pals
TTITLE23=I'm On My Way Home
EXTD=YEAR: 1966
EXTT0=
EXTT1=
EXTT2=
EXTT3=
EXTT4=
EXTT5=
EXTT6=
EXTT7=
EXTT8=
EXTT9=
EXTT10=
EXTT11=
EXTT12=
EXTT13=
EXTT14=
EXTT15=
EXTT16=
EXTT17=
EXTT18=
EXTT19=
EXTT20=
EXTT21=
EXTT22=
EXTT23=
PLAYORDER=
